<svg xmlns="http://www.w3.org/2000/svg" xml:space="preserve" version="1.0" style="shape-rendering:geometricPrecision; text-rendering:geometricPrecision; fill-rule:evenodd; clip-rule:evenodd"
viewBox="0 0 104 104" xmlns:xlink="http://www.w3.org/1999/xlink">
	<g>
		<path class="fil0" d="M0 65l0 -26 13 0 0 26 -13 0zm30 39l-30 0 0 -26 13 0 0 13 17 0 0 13zm35 0l-26 0 0 -13 26 0 0 13zm39 -26l0 26 -30 0 0 -13 17 0 0 -13 13 0zm0 -39l0 26 -13 0 0 -26 13 0zm-30 -38l30 0 0 26 -13 0 0 -13 -17 0 0 -13zm-35 0l26 0 0 13 -26 0 0 -13zm-39 0l30 0 0 13 -17 0 0 13 -13 0 0 -26zm39 25l9 0 0 22 10 -22 9 0 -11 24 11 28 -9 0 -10 -26 0 26 -9 0 0 -52z"/>
	</g>
</svg>
